HIERARCHY
ROOT Hips
{
	OFFSET -3.958830 18.904000 13.208200
	CHANNELS 6 Xposition Yposition Zposition Zrotation Yrotation Xrotation 
	JOINT LHipJoint
	{
		OFFSET 0.000000 0.000000 0.000000
		CHANNELS 3 Zrotation Yrotation Xrotation
		JOINT LeftUpLeg
		{
			OFFSET 1.800000 -1.400000 0.085000
			CHANNELS 3 Zrotation Yrotation Xrotation
			JOINT LeftLeg
			{
				OFFSET 2.215000 -6.000000 0.000000
				CHANNELS 3 Zrotation Yrotation Xrotation
				JOINT LeftFoot
				{
					OFFSET 2.500000 -6.900000 0.000000
					CHANNELS 3 Zrotation Yrotation Xrotation
					JOINT LeftToeBase
					{
						OFFSET 0.200000 -0.500000 1.950000
						CHANNELS 3 Zrotation Yrotation Xrotation
						End Site
						{
							OFFSET 0.000000 0.000000 0.000000
						}
					}
				}
			}
		}
	}
	JOINT RHipJoint
	{
		OFFSET 0.000000 0.000000 0.000000
		CHANNELS 3 Zrotation Yrotation Xrotation
		JOINT RightUpLeg
		{
			OFFSET -1.800000 -1.400000 0.085000
			CHANNELS 3 Zrotation Yrotation Xrotation
			JOINT RightLeg
			{
				OFFSET -2.215000 -6.000000 0.000000
				CHANNELS 3 Zrotation Yrotation Xrotation
				JOINT RightFoot
				{
					OFFSET -2.500000 -6.900000 0.000000
					CHANNELS 3 Zrotation Yrotation Xrotation
					JOINT RightToeBase
					{
						OFFSET -0.200000 -0.500000 1.950000
						CHANNELS 3 Zrotation Yrotation Xrotation
						End Site
						{
							OFFSET 0.000000 0.000000 0.000000
						}
					}
				}
			}
		}
	}
	JOINT LowerBack
	{
		OFFSET 0.000000 0.000000 0.000000
		CHANNELS 3 Zrotation Yrotation Xrotation
		JOINT Spine
		{
			OFFSET -0.087000 1.940000 -0.288900
			CHANNELS 3 Zrotation Yrotation Xrotation
			JOINT Spine1
			{
				OFFSET 0.000000 1.950000 0.060000
				CHANNELS 3 Zrotation Yrotation Xrotation
				JOINT Neck
				{
					OFFSET 0.000000 0.000000 0.000000
					CHANNELS 3 Zrotation Yrotation Xrotation
					JOINT Neck1
					{
						OFFSET 0.000000 1.600000 0.340000
						CHANNELS 3 Zrotation Yrotation Xrotation
						JOINT Head
						{
							OFFSET 0.000000 1.667000 -0.240000
							CHANNELS 3 Zrotation Yrotation Xrotation
							End Site
							{
								OFFSET 0.000000 0.000000 0.000000
							}
						}
					}
				}
				JOINT LeftShoulder
				{
					OFFSET 0.000000 0.000000 0.000000
					CHANNELS 3 Zrotation Yrotation Xrotation
					JOINT LeftArm
					{
						OFFSET 2.700000 1.550000 -0.730000
						CHANNELS 3 Zrotation Yrotation Xrotation
						JOINT LeftForeArm
						{
							OFFSET 5.450000 0.000000 0.000000
							CHANNELS 3 Zrotation Yrotation Xrotation
							JOINT LeftHand
							{
								OFFSET 3.450000 0.000000 0.000000
								CHANNELS 3 Zrotation Yrotation Xrotation
								JOINT LeftHandIndex1
								{
									OFFSET 0.750000 0.000000 0.000000
									CHANNELS 3 Zrotation Yrotation Xrotation
									End Site
									{
										OFFSET 0.000000 0.000000 0.000000
									}
								}
							}
						}
					}
				}
				JOINT RightShoulder
				{
					OFFSET 0.000000 0.000000 0.000000
					CHANNELS 3 Zrotation Yrotation Xrotation
					JOINT RightArm
					{
						OFFSET -2.700000 1.550000 -0.730000
						CHANNELS 3 Zrotation Yrotation Xrotation
						JOINT RightForeArm
						{
							OFFSET -5.450000 0.000000 0.000000
							CHANNELS 3 Zrotation Yrotation Xrotation
							JOINT RightHand
							{
								OFFSET -3.450000 0.000000 0.000000
								CHANNELS 3 Zrotation Yrotation Xrotation
								JOINT RightHandIndex1
								{
									OFFSET -0.750000 0.000000 0.000000
									CHANNELS 3 Zrotation Yrotation Xrotation
									End Site
									{
										OFFSET 0.000000 0.000000 0.000000
									}
								}
							}
						}
					}
				}
			}
		}
	}
}
MOTION
Frames: 9
Frame Time: 0.016667
0.593440 16.760910 0.752330 -3.301496 6.316083 0.083028 -14.972824 14.075720 3.130802 8.543984 -0.619235 -10.065781 -8.689190 5.513955 6.884967 -0.376870 4.550811 3.251380 -0.978570 -1.038530 -1.352420 18.222488 -10.794423 2.672197 -12.994513 -0.225156 -2.738005 0.305034 -4.042017 4.056643 -0.200732 -3.878968 3.074816 -0.551590 1.203270 0.107150 -3.922050 -3.653907 -7.339983 41.883027 -3.077736 7.549728 -38.461154 0.997051 -12.290592 20.330318 -15.532847 -18.045681 -41.244538 9.909353 41.782072 3.644820 -12.620010 1.169390 -12.231214 14.089504 1.445517 -62.284852 18.166380 -14.224140 -13.233518 -63.927581 2.497920 -3.573250 2.889510 0.581390 0.190890 -0.220210 0.259070 -27.143060 11.186149 5.864675 -24.808802 -7.450556 -6.637774 -104.981752 29.765285 -24.765821 3.404950 -1.163113 -0.637670 0.767520 0.936720 0.462960 
0.590410 16.756590 0.737470 -3.300731 6.815616 -0.607841 -14.928379 13.956284 3.048911 8.614217 -0.611049 -9.761410 -8.562230 5.580328 7.555553 -0.395479 4.556586 3.244255 -0.958620 -1.016270 -1.332040 18.278689 -10.917957 2.670704 -13.171184 -0.441833 -2.272299 0.386474 -4.198764 4.310265 -0.236889 -3.962270 3.040406 -0.539240 1.186910 0.103920 -4.067091 -3.251131 -7.286947 42.085513 -3.473439 7.249249 -39.035720 0.727034 -10.545131 20.071535 -15.437526 -17.926616 -41.016770 9.898110 42.157805 4.263300 -12.778430 -0.228490 -12.107612 12.874217 1.722101 -62.755585 16.590544 -14.648399 -10.675301 -63.092143 0.714621 -3.561748 2.846257 0.608110 0.171600 -0.199600 0.259610 -26.993616 11.550163 6.063891 -24.425271 -8.123376 -7.095429 -105.346039 29.322129 -24.801605 3.406827 -1.155330 -0.641050 0.779860 0.927330 0.455490 
0.590190 16.757800 0.722010 -3.415973 6.937574 -2.059999 -14.837045 13.720898 2.912872 8.829799 -0.517807 -8.476649 -8.356720 5.672063 8.301833 -0.411154 4.587494 3.215694 -0.890270 -0.934350 -1.268950 18.392810 -11.152025 2.670630 -13.540251 -0.809585 -1.296926 0.399248 -4.458084 4.714169 -0.319808 -4.126650 2.967439 -0.498280 1.125040 0.113410 -4.346433 -2.444128 -7.223764 42.564183 -3.649629 6.843269 -39.619357 0.816601 -7.306813 19.641390 -15.149215 -17.445503 -40.130938 9.878927 43.897958 4.353810 -12.608990 -3.028550 -12.912834 10.400640 2.132599 -62.545224 14.179768 -15.233593 -7.764165 -61.395779 -1.440397 -3.532154 2.806061 0.651330 0.131610 -0.142550 0.258590 -25.917537 12.347101 6.464253 -25.044444 -9.053730 -7.213323 -105.558771 28.422358 -24.568407 3.372175 -1.135769 -0.621480 0.782230 0.893720 0.436970 
0.587840 16.753140 0.717350 -3.479420 6.420898 -3.289353 -14.772647 13.594774 2.849225 8.996579 -0.387362 -7.105093 -8.193705 5.718463 8.567970 -0.400524 4.624827 3.184678 -0.821050 -0.840660 -1.221820 18.463847 -11.329217 2.651188 -13.785086 -1.071315 -0.704612 0.144881 -4.620821 5.315757 -0.389057 -4.220128 2.912417 -0.455540 1.072330 0.143250 -4.522086 -1.910881 -7.198410 42.585876 -3.739484 7.129142 -39.604627 0.909403 -5.488873 19.265122 -14.876963 -16.757704 -39.068620 9.979886 45.482102 4.456100 -12.173680 -5.609790 -14.097087 8.835344 2.192629 -61.305097 12.885793 -15.415417 -6.609383 -59.555730 -2.268637 -3.513408 2.809315 0.675700 0.102300 -0.081220 0.266650 -24.472921 12.652574 6.614062 -26.422193 -9.045748 -6.774013 -105.010101 27.538224 -23.804145 3.322952 -1.117292 -0.583250 0.771630 0.860850 0.434360 
0.586450 16.751100 0.729240 -3.603086 5.067870 -3.417779 -14.742972 13.575722 2.820461 9.026357 -0.353332 -6.762358 -7.998071 5.760568 9.016640 -0.398805 4.673821 3.169724 -0.816630 -0.829540 -1.231000 18.489758 -11.397804 2.642240 -13.781419 -1.015490 -1.052796 0.007866 -4.605108 5.579669 -0.374144 -4.229112 2.898380 -0.439900 1.097430 0.172400 -4.570346 -1.706337 -7.169235 42.857210 -3.943220 7.307887 -39.847391 0.667486 -5.267543 19.110402 -15.159331 -15.933137 -38.233584 9.660571 44.135480 3.677650 -11.399910 -5.422370 -15.294446 9.069783 1.605997 -59.647843 13.042711 -15.317251 -6.571987 -58.030092 -2.130097 -3.555759 2.848954 0.642180 0.135050 -0.095590 0.272310 -23.349212 12.302984 6.573471 -27.511682 -7.088401 -6.555927 -104.389147 26.054599 -22.827264 3.270996 -1.141847 -0.572540 0.761520 0.869650 0.444250 
0.587460 16.750940 0.752420 -3.880808 2.915299 -3.086645 -14.769326 13.732736 2.854837 9.254444 -0.330189 -6.838948 -7.841146 5.833560 9.383857 -0.406763 4.738150 3.167918 -0.828260 -0.833950 -1.252380 18.443189 -11.339478 2.619158 -13.429524 -0.852595 -1.814229 -0.228932 -4.456158 5.873704 -0.317190 -4.124729 2.955429 -0.422510 1.144300 0.152400 -4.425007 -2.027045 -7.149275 43.213120 -4.489062 8.051203 -39.655500 0.151689 -6.580027 19.200439 -15.651939 -15.636173 -38.662997 10.013960 41.959226 3.065390 -10.333890 -4.575640 -15.844328 9.952649 0.951149 -57.654913 14.342745 -14.625346 -9.745603 -55.048964 -0.301679 -3.594448 2.847754 0.614970 0.170910 -0.136780 0.286350 -23.007066 12.136998 6.525738 -28.279919 -4.569700 -6.664990 -103.376595 24.589067 -21.777441 3.214277 -1.161701 -0.602400 0.789010 0.871990 0.450070 
0.587890 16.740620 0.768360 -3.888854 1.310879 -3.087399 -14.746992 13.697110 2.847960 9.356477 -0.271268 -6.466928 -8.207320 6.006189 9.713880 -0.390035 4.851190 3.130767 -0.828700 -0.834760 -1.256040 18.466951 -11.375697 2.598314 -13.595819 -0.792335 -2.270584 -0.211906 -4.461140 6.094871 -0.303016 -4.122816 2.938958 -0.414760 1.170020 0.180650 -4.457211 -1.883869 -7.120322 43.077426 -4.625602 8.124008 -39.106608 -0.018671 -5.978893 18.819334 -15.801005 -15.263972 -38.289667 10.044250 40.481604 2.726100 -9.500450 -4.156290 -15.584044 9.521767 0.956970 -55.849254 14.170421 -13.505602 -14.597999 -51.746380 1.824555 -3.652903 2.881674 0.588680 0.199800 -0.147940 0.288470 -22.600462 12.117137 6.339530 -29.263155 -3.792654 -6.645432 -102.979904 23.628531 -21.129201 3.175645 -1.183833 -0.594990 0.780750 0.883260 0.456700 
0.584430 16.734600 0.753860 -4.220762 -0.102700 -3.985521 -14.724576 13.696540 2.823733 9.941092 -0.192866 -5.718689 -8.240412 6.195326 10.380690 -0.404492 4.985997 3.076152 -0.795180 -0.799970 -1.218830 18.484641 -11.428169 2.596344 -13.454999 -0.922529 -2.048678 -0.293624 -4.513690 6.354827 -0.325553 -4.141700 2.921780 -0.384840 1.152180 0.188440 -4.485175 -1.762907 -7.105368 43.029777 -5.379943 9.404061 -38.451190 -0.344516 -5.026928 18.543994 -15.772124 -14.781814 -37.768312 9.950786 39.887156 2.455920 -8.812630 -6.079270 -15.921399 8.313856 1.015866 -53.359845 13.432954 -12.314187 -19.517286 -48.673507 3.615465 -3.669068 2.878544 0.612450 0.192300 -0.130290 0.283320 -21.851963 12.398494 6.108176 -30.457001 -3.486432 -6.753396 -102.990488 22.911540 -20.929997 3.102453 -1.172401 -0.600310 0.793230 0.876740 0.438530 
0.586670 16.738170 0.740200 -4.768727 -1.381183 -5.186570 -14.708589 13.704382 2.817429 10.840851 -0.087160 -4.628165 -8.401814 6.420817 10.819364 -0.380045 5.120672 3.007150 -0.724680 -0.719320 -1.147280 18.495837 -11.458588 2.603901 -13.168404 -1.139055 -1.396816 -0.371741 -4.568637 6.544434 -0.381954 -4.169713 2.888144 -0.347740 1.084960 0.197980 -4.497704 -1.694074 -7.114883 43.114292 -5.955930 10.851075 -37.696410 -0.448226 -4.169828 18.375172 -15.545385 -14.415957 -37.308133 10.161486 40.701022 2.408690 -8.363450 -8.295490 -16.570245 7.135098 1.145186 -50.893119 12.907346 -11.353682 -24.051596 -46.988728 5.239734 -3.628979 2.911359 0.641860 0.149900 -0.078110 0.280240 -20.995370 12.643290 5.929807 -31.374659 -3.499235 -6.555570 -104.225126 23.255581 -22.092350 3.036293 -1.166261 -0.573340 0.778700 0.835810 0.422580 
